<svg xmlns="http://www.w3.org/2000/svg"
 xmlns:xlink="http://www.w3.org/1999/xlink"
 width="874px" height="14px"  viewBox="0 0 874 14">
<path fill-rule="evenodd"  fill="#00cbff"
 d="M863.7992,2.4727173 C863.7992,2.4727173 863.3053,1.9912109 863.3053,1.9912109 C863.3053,1.9912109 853.526,11.523254 853.526,11.523254 C853.526,11.523254 854.02,12.005371 854.02,12.005371 C854.02,12.005371 863.7992,2.4727173 863.7992,2.4727173 ZM861.7335,2.4727173 C861.7335,2.4727173 862.2274,1.9912109 862.2274,1.9912109 C862.2274,1.9912109 872.0066,11.523254 872.0066,11.523254 C872.0066,11.523254 871.5127,12.005371 871.5127,12.005371 C871.5127,12.005371 861.7335,2.4727173 861.7335,2.4727173 ZM846.35815,2.4727173 C846.35815,2.4727173 845.86426,1.9912109 845.86426,1.9912109 C845.86426,1.9912109 836.08496,11.523254 836.08496,11.523254 C836.08496,11.523254 836.579,12.005371 836.579,12.005371 C836.579,12.005371 846.35815,2.4727173 846.35815,2.4727173 ZM844.2925,2.4727173 C844.2925,2.4727173 844.7864,1.9912109 844.7864,1.9912109 C844.7864,1.9912109 854.5657,11.523254 854.5657,11.523254 C854.5657,11.523254 854.07166,12.005371 854.07166,12.005371 C854.07166,12.005371 844.2925,2.4727173 844.2925,2.4727173 ZM829.943,2.4727173 C829.943,2.4727173 829.4491,1.9912109 829.4491,1.9912109 C829.4491,1.9912109 819.6698,11.523254 819.6698,11.523254 C819.6698,11.523254 820.1638,12.005371 820.1638,12.005371 C820.1638,12.005371 829.943,2.4727173 829.943,2.4727173 ZM827.87744,2.4727173 C827.87744,2.4727173 828.37134,1.9912109 828.37134,1.9912109 C828.37134,1.9912109 838.1505,11.523254 838.1505,11.523254 C838.1505,11.523254 837.6566,12.005371 837.6566,12.005371 C837.6566,12.005371 827.87744,2.4727173 827.87744,2.4727173 ZM812.50195,2.4727173 C812.50195,2.4727173 812.00806,1.9912109 812.00806,1.9912109 C812.00806,1.9912109 802.22876,11.523254 802.22876,11.523254 C802.22876,11.523254 802.7228,12.005371 802.7228,12.005371 C802.7228,12.005371 812.50195,2.4727173 812.50195,2.4727173 ZM810.4364,2.4727173 C810.4364,2.4727173 810.9303,1.9912109 810.9303,1.9912109 C810.9303,1.9912109 820.7096,11.523254 820.7096,11.523254 C820.7096,11.523254 820.2156,12.005371 820.2156,12.005371 C820.2156,12.005371 810.4364,2.4727173 810.4364,2.4727173 ZM795.0609,2.4727173 C795.0609,2.4727173 794.567,1.9912109 794.567,1.9912109 C794.567,1.9912109 784.78784,11.523254 784.78784,11.523254 C784.78784,11.523254 785.28174,12.005371 785.28174,12.005371 C785.28174,12.005371 795.0609,2.4727173 795.0609,2.4727173 ZM792.99536,2.4727173 C792.99536,2.4727173 793.48926,1.9912109 793.48926,1.9912109 C793.48926,1.9912109 803.26855,11.523254 803.26855,11.523254 C803.26855,11.523254 802.77454,12.005371 802.77454,12.005371 C802.77454,12.005371 792.99536,2.4727173 792.99536,2.4727173 ZM777.6199,2.4727173 C777.6199,2.4727173 777.126,1.9912109 777.126,1.9912109 C777.126,1.9912109 767.3468,11.523254 767.3468,11.523254 C767.3468,11.523254 767.8407,12.005371 767.8407,12.005371 C767.8407,12.005371 777.6199,2.4727173 777.6199,2.4727173 ZM775.5543,2.4727173 C775.5543,2.4727173 776.04834,1.9912109 776.04834,1.9912109 C776.04834,1.9912109 785.8275,11.523254 785.8275,11.523254 C785.8275,11.523254 785.3336,12.005371 785.3336,12.005371 C785.3336,12.005371 775.5543,2.4727173 775.5543,2.4727173 ZM760.17883,2.4727173 C760.17883,2.4727173 759.68494,1.9912109 759.68494,1.9912109 C759.68494,1.9912109 749.90576,11.523254 749.90576,11.523254 C749.90576,11.523254 750.39966,12.005371 750.39966,12.005371 C750.39966,12.005371 760.17883,2.4727173 760.17883,2.4727173 ZM758.1133,2.4727173 C758.1133,2.4727173 758.6073,1.9912109 758.6073,1.9912109 C758.6073,1.9912109 768.3865,11.523254 768.3865,11.523254 C768.3865,11.523254 767.8926,12.005371 767.8926,12.005371 C767.8926,12.005371 758.1133,2.4727173 758.1133,2.4727173 ZM742.7378,2.4727173 C742.7378,2.4727173 742.2439,1.9912109 742.2439,1.9912109 C742.2439,1.9912109 732.4647,11.523254 732.4647,11.523254 C732.4647,11.523254 732.9586,12.005371 732.9586,12.005371 C732.9586,12.005371 742.7378,2.4727173 742.7378,2.4727173 ZM740.67224,2.4727173 C740.67224,2.4727173 741.16614,1.9912109 741.16614,1.9912109 C741.16614,1.9912109 750.9453,11.523254 750.9453,11.523254 C750.9453,11.523254 750.4514,12.005371 750.4514,12.005371 C750.4514,12.005371 740.67224,2.4727173 740.67224,2.4727173 ZM726.32275,2.4727173 C726.32275,2.4727173 725.82886,1.9912109 725.82886,1.9912109 C725.82886,1.9912109 716.0497,11.523254 716.0497,11.523254 C716.0497,11.523254 716.5436,12.005371 716.5436,12.005371 C716.5436,12.005371 726.32275,2.4727173 726.32275,2.4727173 ZM724.2571,2.4727173 C724.2571,2.4727173 724.7511,1.9912109 724.7511,1.9912109 C724.7511,1.9912109 734.5303,11.523254 734.5303,11.523254 C734.5303,11.523254 734.0364,12.005371 734.0364,12.005371 C734.0364,12.005371 724.2571,2.4727173 724.2571,2.4727173 ZM708.8816,2.4727173 C708.8816,2.4727173 708.3877,1.9912109 708.3877,1.9912109 C708.3877,1.9912109 698.6085,11.523254 698.6085,11.523254 C698.6085,11.523254 699.1024,12.005371 699.1024,12.005371 C699.1024,12.005371 708.8816,2.4727173 708.8816,2.4727173 ZM706.81616,2.4727173 C706.81616,2.4727173 707.31006,1.9912109 707.31006,1.9912109 C707.31006,1.9912109 717.08923,11.523254 717.08923,11.523254 C717.08923,11.523254 716.59534,12.005371 716.59534,12.005371 C716.59534,12.005371 706.81616,2.4727173 706.81616,2.4727173 ZM690.4147,2.4727173 C690.4147,2.4727173 689.9208,1.9912109 689.9208,1.9912109 C689.9208,1.9912109 680.1415,11.523254 680.1415,11.523254 C680.1415,11.523254 680.6355,12.005371 680.6355,12.005371 C680.6355,12.005371 690.4147,2.4727173 690.4147,2.4727173 ZM688.3491,2.4727173 C688.3491,2.4727173 688.843,1.9912109 688.843,1.9912109 C688.843,1.9912109 698.6223,11.523254 698.6223,11.523254 C698.6223,11.523254 698.1283,12.005371 698.1283,12.005371 C698.1283,12.005371 688.3491,2.4727173 688.3491,2.4727173 ZM672.97363,2.4727173 C672.97363,2.4727173 672.47974,1.9912109 672.47974,1.9912109 C672.47974,1.9912109 662.70056,11.523254 662.70056,11.523254 C662.70056,11.523254 663.19446,12.005371 663.19446,12.005371 C663.19446,12.005371 672.97363,2.4727173 672.97363,2.4727173 ZM670.9081,2.4727173 C670.9081,2.4727173 671.402,1.9912109 671.402,1.9912109 C671.402,1.9912109 681.1813,11.523254 681.1813,11.523254 C681.1813,11.523254 680.68726,12.005371 680.68726,12.005371 C680.68726,12.005371 670.9081,2.4727173 670.9081,2.4727173 ZM656.5586,2.4727173 C656.5586,2.4727173 656.0647,1.9912109 656.0647,1.9912109 C656.0647,1.9912109 646.2854,11.523254 646.2854,11.523254 C646.2854,11.523254 646.7794,12.005371 646.7794,12.005371 C646.7794,12.005371 656.5586,2.4727173 656.5586,2.4727173 ZM654.49304,2.4727173 C654.49304,2.4727173 654.98694,1.9912109 654.98694,1.9912109 C654.98694,1.9912109 664.7661,11.523254 664.7661,11.523254 C664.7661,11.523254 664.2722,12.005371 664.2722,12.005371 C664.2722,12.005371 654.49304,2.4727173 654.49304,2.4727173 ZM639.11755,2.4727173 C639.11755,2.4727173 638.62366,1.9912109 638.62366,1.9912109 C638.62366,1.9912109 628.8445,11.523254 628.8445,11.523254 C628.8445,11.523254 629.3384,12.005371 629.3384,12.005371 C629.3384,12.005371 639.11755,2.4727173 639.11755,2.4727173 ZM637.052,2.4727173 C637.052,2.4727173 637.5459,1.9912109 637.5459,1.9912109 C637.5459,1.9912109 647.3252,11.523254 647.3252,11.523254 C647.3252,11.523254 646.8312,12.005371 646.8312,12.005371 C646.8312,12.005371 637.052,2.4727173 637.052,2.4727173 ZM621.6765,2.4727173 C621.6765,2.4727173 621.1826,1.9912109 621.1826,1.9912109 C621.1826,1.9912109 611.40344,11.523254 611.40344,11.523254 C611.40344,11.523254 611.89734,12.005371 611.89734,12.005371 C611.89734,12.005371 621.6765,2.4727173 621.6765,2.4727173 ZM619.61096,2.4727173 C619.61096,2.4727173 620.10474,1.9912109 620.10474,1.9912109 C620.10474,1.9912109 629.88403,11.523254 629.88403,11.523254 C629.88403,11.523254 629.39014,12.005371 629.39014,12.005371 C629.39014,12.005371 619.61096,2.4727173 619.61096,2.4727173 ZM604.2355,2.4727173 C604.2355,2.4727173 603.7416,1.9912109 603.7416,1.9912109 C603.7416,1.9912109 593.9624,11.523254 593.9624,11.523254 C593.9624,11.523254 594.4563,12.005371 594.4563,12.005371 C594.4563,12.005371 604.2355,2.4727173 604.2355,2.4727173 ZM602.1698,2.4727173 C602.1698,2.4727173 602.6638,1.9912109 602.6638,1.9912109 C602.6638,1.9912109 612.443,11.523254 612.443,11.523254 C612.443,11.523254 611.9491,12.005371 611.9491,12.005371 C611.9491,12.005371 602.1698,2.4727173 602.1698,2.4727173 ZM586.79443,2.4727173 C586.79443,2.4727173 586.30054,1.9912109 586.30054,1.9912109 C586.30054,1.9912109 576.52136,11.523254 576.52136,11.523254 C576.52136,11.523254 577.01526,12.005371 577.01526,12.005371 C577.01526,12.005371 586.79443,2.4727173 586.79443,2.4727173 ZM584.72876,2.4727173 C584.72876,2.4727173 585.2228,1.9912109 585.2228,1.9912109 C585.2228,1.9912109 595.00195,11.523254 595.00195,11.523254 C595.00195,11.523254 594.50806,12.005371 594.50806,12.005371 C594.50806,12.005371 584.72876,2.4727173 584.72876,2.4727173 ZM569.3534,2.4727173 C569.3534,2.4727173 568.8595,1.9912109 568.8595,1.9912109 C568.8595,1.9912109 559.0803,11.523254 559.0803,11.523254 C559.0803,11.523254 559.5741,12.005371 559.5741,12.005371 C559.5741,12.005371 569.3534,2.4727173 569.3534,2.4727173 ZM567.28784,2.4727173 C567.28784,2.4727173 567.78174,1.9912109 567.78174,1.9912109 C567.78174,1.9912109 577.5609,11.523254 577.5609,11.523254 C577.5609,11.523254 577.067,12.005371 577.067,12.005371 C577.067,12.005371 567.28784,2.4727173 567.28784,2.4727173 ZM552.93823,2.4727173 C552.93823,2.4727173 552.44434,1.9912109 552.44434,1.9912109 C552.44434,1.9912109 542.66516,11.523254 542.66516,11.523254 C542.66516,11.523254 543.15906,12.005371 543.15906,12.005371 C543.15906,12.005371 552.93823,2.4727173 552.93823,2.4727173 ZM550.8727,2.4727173 C550.8727,2.4727173 551.3667,1.9912109 551.3667,1.9912109 C551.3667,1.9912109 561.1459,11.523254 561.1459,11.523254 C561.1459,11.523254 560.652,12.005371 560.652,12.005371 C560.652,12.005371 550.8727,2.4727173 550.8727,2.4727173 ZM535.4973,2.4727173 C535.4973,2.4727173 535.0033,1.9912109 535.0033,1.9912109 C535.0033,1.9912109 525.2241,11.523254 525.2241,11.523254 C525.2241,11.523254 525.718,12.005371 525.718,12.005371 C525.718,12.005371 535.4973,2.4727173 535.4973,2.4727173 ZM533.43176,2.4727173 C533.43176,2.4727173 533.92566,1.9912109 533.92566,1.9912109 C533.92566,1.9912109 543.70483,11.523254 543.70483,11.523254 C543.70483,11.523254 543.21094,12.005371 543.21094,12.005371 C543.21094,12.005371 533.43176,2.4727173 533.43176,2.4727173 ZM516.0043,2.4727173 C516.0043,2.4727173 515.5104,1.9912109 515.5104,1.9912109 C515.5104,1.9912109 505.7312,11.523254 505.7312,11.523254 C505.7312,11.523254 506.2251,12.005371 506.2251,12.005371 C506.2251,12.005371 516.0043,2.4727173 516.0043,2.4727173 ZM513.9387,2.4727173 C513.9387,2.4727173 514.43274,1.9912109 514.43274,1.9912109 C514.43274,1.9912109 524.2119,11.523254 524.2119,11.523254 C524.2119,11.523254 523.718,12.005371 523.718,12.005371 C523.718,12.005371 513.9387,2.4727173 513.9387,2.4727173 ZM498.5633,2.4727173 C498.5633,2.4727173 498.06934,1.9912109 498.06934,1.9912109 C498.06934,1.9912109 488.29016,11.523254 488.29016,11.523254 C488.29016,11.523254 488.78406,12.005371 488.78406,12.005371 C488.78406,12.005371 498.5633,2.4727173 498.5633,2.4727173 ZM496.49774,2.4727173 C496.49774,2.4727173 496.99164,1.9912109 496.99164,1.9912109 C496.99164,1.9912109 506.77087,11.523254 506.77087,11.523254 C506.77087,11.523254 506.27698,12.005371 506.27698,12.005371 C506.27698,12.005371 496.49774,2.4727173 496.49774,2.4727173 ZM482.1482,2.4727173 C482.1482,2.4727173 481.6543,1.9912109 481.6543,1.9912109 C481.6543,1.9912109 471.87506,11.523254 471.87506,11.523254 C471.87506,11.523254 472.36902,12.005371 472.36902,12.005371 C472.36902,12.005371 482.1482,2.4727173 482.1482,2.4727173 ZM480.08264,2.4727173 C480.08264,2.4727173 480.5766,1.9912109 480.5766,1.9912109 C480.5766,1.9912109 490.35583,11.523254 490.35583,11.523254 C490.35583,11.523254 489.86188,12.005371 489.86188,12.005371 C489.86188,12.005371 480.08264,2.4727173 480.08264,2.4727173 ZM464.7072,2.4727173 C464.7072,2.4727173 464.21326,1.9912109 464.21326,1.9912109 C464.21326,1.9912109 454.43408,11.523254 454.43408,11.523254 C454.43408,11.523254 454.92798,12.005371 454.92798,12.005371 C454.92798,12.005371 464.7072,2.4727173 464.7072,2.4727173 ZM462.64154,2.4727173 C462.64154,2.4727173 463.13544,1.9912109 463.13544,1.9912109 C463.13544,1.9912109 472.91467,11.523254 472.91467,11.523254 C472.91467,11.523254 472.42072,12.005371 472.42072,12.005371 C472.42072,12.005371 462.64154,2.4727173 462.64154,2.4727173 ZM447.26617,2.4727173 C447.26617,2.4727173 446.77222,1.9912109 446.77222,1.9912109 C446.77222,1.9912109 436.99304,11.523254 436.99304,11.523254 C436.99304,11.523254 437.48694,12.005371 437.48694,12.005371 C437.48694,12.005371 447.26617,2.4727173 447.26617,2.4727173 ZM445.2005,2.4727173 C445.2005,2.4727173 445.69446,1.9912109 445.69446,1.9912109 C445.69446,1.9912109 455.47363,11.523254 455.47363,11.523254 C455.47363,11.523254 454.97974,12.005371 454.97974,12.005371 C454.97974,12.005371 445.2005,2.4727173 445.2005,2.4727173 ZM429.82513,2.4727173 C429.82513,2.4727173 429.33124,1.9912109 429.33124,1.9912109 C429.33124,1.9912109 419.552,11.523254 419.552,11.523254 C419.552,11.523254 420.04596,12.005371 420.04596,12.005371 C420.04596,12.005371 429.82513,2.4727173 429.82513,2.4727173 ZM427.75946,2.4727173 C427.75946,2.4727173 428.25342,1.9912109 428.25342,1.9912109 C428.25342,1.9912109 438.0326,11.523254 438.0326,11.523254 C438.0326,11.523254 437.5387,12.005371 437.5387,12.005371 C437.5387,12.005371 427.75946,2.4727173 427.75946,2.4727173 ZM412.38403,2.4727173 C412.38403,2.4727173 411.8902,1.9912109 411.8902,1.9912109 C411.8902,1.9912109 402.11096,11.523254 402.11096,11.523254 C402.11096,11.523254 402.6048,12.005371 402.6048,12.005371 C402.6048,12.005371 412.38403,2.4727173 412.38403,2.4727173 ZM410.31848,2.4727173 C410.31848,2.4727173 410.81238,1.9912109 410.81238,1.9912109 C410.81238,1.9912109 420.5916,11.523254 420.5916,11.523254 C420.5916,11.523254 420.09766,12.005371 420.09766,12.005371 C420.09766,12.005371 410.31848,2.4727173 410.31848,2.4727173 ZM394.943,2.4727173 C394.943,2.4727173 394.44904,1.9912109 394.44904,1.9912109 C394.44904,1.9912109 384.66986,11.523254 384.66986,11.523254 C384.66986,11.523254 385.16376,12.005371 385.16376,12.005371 C385.16376,12.005371 394.943,2.4727173 394.943,2.4727173 ZM392.87744,2.4727173 C392.87744,2.4727173 393.37134,1.9912109 393.37134,1.9912109 C393.37134,1.9912109 403.15057,11.523254 403.15057,11.523254 C403.15057,11.523254 402.65662,12.005371 402.65662,12.005371 C402.65662,12.005371 392.87744,2.4727173 392.87744,2.4727173 ZM378.5279,2.4727173 C378.5279,2.4727173 378.034,1.9912109 378.034,1.9912109 C378.034,1.9912109 368.25476,11.523254 368.25476,11.523254 C368.25476,11.523254 368.74872,12.005371 368.74872,12.005371 C368.74872,12.005371 378.5279,2.4727173 378.5279,2.4727173 ZM376.4624,2.4727173 C376.4624,2.4727173 376.9563,1.9912109 376.9563,1.9912109 C376.9563,1.9912109 386.73547,11.523254 386.73547,11.523254 C386.73547,11.523254 386.24158,12.005371 386.24158,12.005371 C386.24158,12.005371 376.4624,2.4727173 376.4624,2.4727173 ZM361.0869,2.4727173 C361.0869,2.4727173 360.59296,1.9912109 360.59296,1.9912109 C360.59296,1.9912109 350.81378,11.523254 350.81378,11.523254 C350.81378,11.523254 351.30768,12.005371 351.30768,12.005371 C351.30768,12.005371 361.0869,2.4727173 361.0869,2.4727173 ZM359.02136,2.4727173 C359.02136,2.4727173 359.51526,1.9912109 359.51526,1.9912109 C359.51526,1.9912109 369.2945,11.523254 369.2945,11.523254 C369.2945,11.523254 368.80054,12.005371 368.80054,12.005371 C368.80054,12.005371 359.02136,2.4727173 359.02136,2.4727173 ZM341.59393,2.4727173 C341.59393,2.4727173 341.10004,1.9912109 341.10004,1.9912109 C341.10004,1.9912109 331.3208,11.523254 331.3208,11.523254 C331.3208,11.523254 331.81476,12.005371 331.81476,12.005371 C331.81476,12.005371 341.59393,2.4727173 341.59393,2.4727173 ZM339.52838,2.4727173 C339.52838,2.4727173 340.02234,1.9912109 340.02234,1.9912109 C340.02234,1.9912109 349.8015,11.523254 349.8015,11.523254 C349.8015,11.523254 349.30762,12.005371 349.30762,12.005371 C349.30762,12.005371 339.52838,2.4727173 339.52838,2.4727173 ZM324.1529,2.4727173 C324.1529,2.4727173 323.659,1.9912109 323.659,1.9912109 C323.659,1.9912109 313.87976,11.523254 313.87976,11.523254 C313.87976,11.523254 314.37372,12.005371 314.37372,12.005371 C314.37372,12.005371 324.1529,2.4727173 324.1529,2.4727173 ZM322.0874,2.4727173 C322.0874,2.4727173 322.5813,1.9912109 322.5813,1.9912109 C322.5813,1.9912109 332.36047,11.523254 332.36047,11.523254 C332.36047,11.523254 331.86658,12.005371 331.86658,12.005371 C331.86658,12.005371 322.0874,2.4727173 322.0874,2.4727173 ZM307.73785,2.4727173 C307.73785,2.4727173 307.2439,1.9912109 307.2439,1.9912109 C307.2439,1.9912109 297.46472,11.523254 297.46472,11.523254 C297.46472,11.523254 297.95862,12.005371 297.95862,12.005371 C297.95862,12.005371 307.73785,2.4727173 307.73785,2.4727173 ZM305.67218,2.4727173 C305.67218,2.4727173 306.16614,1.9912109 306.16614,1.9912109 C306.16614,1.9912109 315.9453,11.523254 315.9453,11.523254 C315.9453,11.523254 315.45142,12.005371 315.45142,12.005371 C315.45142,12.005371 305.67218,2.4727173 305.67218,2.4727173 ZM290.2968,2.4727173 C290.2968,2.4727173 289.80292,1.9912109 289.80292,1.9912109 C289.80292,1.9912109 280.02368,11.523254 280.02368,11.523254 C280.02368,11.523254 280.51764,12.005371 280.51764,12.005371 C280.51764,12.005371 290.2968,2.4727173 290.2968,2.4727173 ZM288.2312,2.4727173 C288.2312,2.4727173 288.7251,1.9912109 288.7251,1.9912109 C288.7251,1.9912109 298.50427,11.523254 298.50427,11.523254 C298.50427,11.523254 298.01038,12.005371 298.01038,12.005371 C298.01038,12.005371 288.2312,2.4727173 288.2312,2.4727173 ZM272.85583,2.4727173 C272.85583,2.4727173 272.36188,1.9912109 272.36188,1.9912109 C272.36188,1.9912109 262.58264,11.523254 262.58264,11.523254 C262.58264,11.523254 263.0766,12.005371 263.0766,12.005371 C263.0766,12.005371 272.85583,2.4727173 272.85583,2.4727173 ZM270.79016,2.4727173 C270.79016,2.4727173 271.28406,1.9912109 271.28406,1.9912109 C271.28406,1.9912109 281.0633,11.523254 281.0633,11.523254 C281.0633,11.523254 280.56934,12.005371 280.56934,12.005371 C280.56934,12.005371 270.79016,2.4727173 270.79016,2.4727173 ZM255.41467,2.4727173 C255.41467,2.4727173 254.92072,1.9912109 254.92072,1.9912109 C254.92072,1.9912109 245.14154,11.523254 245.14154,11.523254 C245.14154,11.523254 245.63544,12.005371 245.63544,12.005371 C245.63544,12.005371 255.41467,2.4727173 255.41467,2.4727173 ZM253.34912,2.4727173 C253.34912,2.4727173 253.84302,1.9912109 253.84302,1.9912109 C253.84302,1.9912109 263.62225,11.523254 263.62225,11.523254 C263.62225,11.523254 263.1283,12.005371 263.1283,12.005371 C263.1283,12.005371 253.34912,2.4727173 253.34912,2.4727173 ZM237.97363,2.4727173 C237.97363,2.4727173 237.47974,1.9912109 237.47974,1.9912109 C237.47974,1.9912109 227.7005,11.523254 227.7005,11.523254 C227.7005,11.523254 228.19446,12.005371 228.19446,12.005371 C228.19446,12.005371 237.97363,2.4727173 237.97363,2.4727173 ZM235.90808,2.4727173 C235.90808,2.4727173 236.40204,1.9912109 236.40204,1.9912109 C236.40204,1.9912109 246.18121,11.523254 246.18121,11.523254 C246.18121,11.523254 245.68732,12.005371 245.68732,12.005371 C245.68732,12.005371 235.90808,2.4727173 235.90808,2.4727173 ZM220.5326,2.4727173 C220.5326,2.4727173 220.0387,1.9912109 220.0387,1.9912109 C220.0387,1.9912109 210.25946,11.523254 210.25946,11.523254 C210.25946,11.523254 210.75342,12.005371 210.75342,12.005371 C210.75342,12.005371 220.5326,2.4727173 220.5326,2.4727173 ZM218.46704,2.4727173 C218.46704,2.4727173 218.961,1.9912109 218.961,1.9912109 C218.961,1.9912109 228.74023,11.523254 228.74023,11.523254 C228.74023,11.523254 228.24628,12.005371 228.24628,12.005371 C228.24628,12.005371 218.46704,2.4727173 218.46704,2.4727173 ZM204.11755,2.4727173 C204.11755,2.4727173 203.62366,1.9912109 203.62366,1.9912109 C203.62366,1.9912109 193.84442,11.523254 193.84442,11.523254 C193.84442,11.523254 194.33838,12.005371 194.33838,12.005371 C194.33838,12.005371 204.11755,2.4727173 204.11755,2.4727173 ZM202.052,2.4727173 C202.052,2.4727173 202.54596,1.9912109 202.54596,1.9912109 C202.54596,1.9912109 212.32513,11.523254 212.32513,11.523254 C212.32513,11.523254 211.83124,12.005371 211.83124,12.005371 C211.83124,12.005371 202.052,2.4727173 202.052,2.4727173 ZM186.67651,2.4727173 C186.67651,2.4727173 186.18262,1.9912109 186.18262,1.9912109 C186.18262,1.9912109 176.40338,11.523254 176.40338,11.523254 C176.40338,11.523254 176.89734,12.005371 176.89734,12.005371 C176.89734,12.005371 186.67651,2.4727173 186.67651,2.4727173 ZM184.61096,2.4727173 C184.61096,2.4727173 185.1048,1.9912109 185.1048,1.9912109 C185.1048,1.9912109 194.88403,11.523254 194.88403,11.523254 C194.88403,11.523254 194.3902,12.005371 194.3902,12.005371 C194.3902,12.005371 184.61096,2.4727173 184.61096,2.4727173 ZM167.1836,2.4727173 C167.1836,2.4727173 166.68964,1.9912109 166.68964,1.9912109 C166.68964,1.9912109 156.91046,11.523254 156.91046,11.523254 C156.91046,11.523254 157.40436,12.005371 157.40436,12.005371 C157.40436,12.005371 167.1836,2.4727173 167.1836,2.4727173 ZM165.11804,2.4727173 C165.11804,2.4727173 165.61194,1.9912109 165.61194,1.9912109 C165.61194,1.9912109 175.39117,11.523254 175.39117,11.523254 C175.39117,11.523254 174.89722,12.005371 174.89722,12.005371 C174.89722,12.005371 165.11804,2.4727173 165.11804,2.4727173 ZM149.74255,2.4727173 C149.74255,2.4727173 149.24866,1.9912109 149.24866,1.9912109 C149.24866,1.9912109 139.46942,11.523254 139.46942,11.523254 C139.46942,11.523254 139.96338,12.005371 139.96338,12.005371 C139.96338,12.005371 149.74255,2.4727173 149.74255,2.4727173 ZM147.677,2.4727173 C147.677,2.4727173 148.17096,1.9912109 148.17096,1.9912109 C148.17096,1.9912109 157.95013,11.523254 157.95013,11.523254 C157.95013,11.523254 157.45624,12.005371 157.45624,12.005371 C157.45624,12.005371 147.677,2.4727173 147.677,2.4727173 ZM133.32751,2.4727173 C133.32751,2.4727173 132.83356,1.9912109 132.83356,1.9912109 C132.83356,1.9912109 123.05438,11.523254 123.05438,11.523254 C123.05438,11.523254 123.54828,12.005371 123.54828,12.005371 C123.54828,12.005371 133.32751,2.4727173 133.32751,2.4727173 ZM131.26184,2.4727173 C131.26184,2.4727173 131.75574,1.9912109 131.75574,1.9912109 C131.75574,1.9912109 141.53497,11.523254 141.53497,11.523254 C141.53497,11.523254 141.04102,12.005371 141.04102,12.005371 C141.04102,12.005371 131.26184,2.4727173 131.26184,2.4727173 ZM115.886475,2.4727173 C115.886475,2.4727173 115.39252,1.9912109 115.39252,1.9912109 C115.39252,1.9912109 105.61334,11.523254 105.61334,11.523254 C105.61334,11.523254 106.10724,12.005371 106.10724,12.005371 C106.10724,12.005371 115.886475,2.4727173 115.886475,2.4727173 ZM113.8208,2.4727173 C113.8208,2.4727173 114.31476,1.9912109 114.31476,1.9912109 C114.31476,1.9912109 124.09393,11.523254 124.09393,11.523254 C124.09393,11.523254 123.60004,12.005371 123.60004,12.005371 C123.60004,12.005371 113.8208,2.4727173 113.8208,2.4727173 ZM98.44531,2.4727173 C98.44531,2.4727173 97.951416,1.9912109 97.951416,1.9912109 C97.951416,1.9912109 88.17218,11.523254 88.17218,11.523254 C88.17218,11.523254 88.66614,12.005371 88.66614,12.005371 C88.66614,12.005371 98.44531,2.4727173 98.44531,2.4727173 ZM96.37976,2.4727173 C96.37976,2.4727173 96.87372,1.9912109 96.87372,1.9912109 C96.87372,1.9912109 106.65289,11.523254 106.65289,11.523254 C106.65289,11.523254 106.159,12.005371 106.159,12.005371 C106.159,12.005371 96.37976,2.4727173 96.37976,2.4727173 ZM81.00427,2.4727173 C81.00427,2.4727173 80.510376,1.9912109 80.510376,1.9912109 C80.510376,1.9912109 70.7312,11.523254 70.7312,11.523254 C70.7312,11.523254 71.2251,12.005371 71.2251,12.005371 C71.2251,12.005371 81.00427,2.4727173 81.00427,2.4727173 ZM78.93878,2.4727173 C78.93878,2.4727173 79.43268,1.9912109 79.43268,1.9912109 C79.43268,1.9912109 89.211914,11.523254 89.211914,11.523254 C89.211914,11.523254 88.71796,12.005371 88.71796,12.005371 C88.71796,12.005371 78.93878,2.4727173 78.93878,2.4727173 ZM63.563293,2.4727173 C63.563293,2.4727173 63.069336,1.9912109 63.069336,1.9912109 C63.069336,1.9912109 53.29016,11.523254 53.29016,11.523254 C53.29016,11.523254 53.784058,12.005371 53.784058,12.005371 C53.784058,12.005371 63.563293,2.4727173 63.563293,2.4727173 ZM61.49774,2.4727173 C61.49774,2.4727173 61.99164,1.9912109 61.99164,1.9912109 C61.99164,1.9912109 71.770874,11.523254 71.770874,11.523254 C71.770874,11.523254 71.27692,12.005371 71.27692,12.005371 C71.27692,12.005371 61.49774,2.4727173 61.49774,2.4727173 ZM46.122253,2.4727173 C46.122253,2.4727173 45.628296,1.9912109 45.628296,1.9912109 C45.628296,1.9912109 35.84912,11.523254 35.84912,11.523254 C35.84912,11.523254 36.343018,12.005371 36.343018,12.005371 C36.343018,12.005371 46.122253,2.4727173 46.122253,2.4727173 ZM44.0567,2.4727173 C44.0567,2.4727173 44.55066,1.9912109 44.55066,1.9912109 C44.55066,1.9912109 54.329834,11.523254 54.329834,11.523254 C54.329834,11.523254 53.835938,12.005371 53.835938,12.005371 C53.835938,12.005371 44.0567,2.4727173 44.0567,2.4727173 ZM29.707214,2.4727173 C29.707214,2.4727173 29.213257,1.9912109 29.213257,1.9912109 C29.213257,1.9912109 19.434082,11.523254 19.434082,11.523254 C19.434082,11.523254 19.927979,12.005371 19.927979,12.005371 C19.927979,12.005371 29.707214,2.4727173 29.707214,2.4727173 ZM27.64154,2.4727173 C27.64154,2.4727173 28.135437,1.9912109 28.135437,1.9912109 C28.135437,1.9912109 37.914673,11.523254 37.914673,11.523254 C37.914673,11.523254 37.420715,12.005371 37.420715,12.005371 C37.420715,12.005371 27.64154,2.4727173 27.64154,2.4727173 ZM12.266174,2.4727173 C12.266174,2.4727173 11.772217,1.9912109 11.772217,1.9912109 C11.772217,1.9912109 1.993042,11.523254 1.993042,11.523254 C1.993042,11.523254 2.4869385,12.005371 2.4869385,12.005371 C2.4869385,12.005371 12.266174,2.4727173 12.266174,2.4727173 ZM10.2005005,2.4727173 C10.2005005,2.4727173 10.694458,1.9912109 10.694458,1.9912109 C10.694458,1.9912109 20.473633,11.523254 20.473633,11.523254 C20.473633,11.523254 19.979736,12.005371 19.979736,12.005371 C19.979736,12.005371 10.2005005,2.4727173 10.2005005,2.4727173 Z"/>
</svg>